# xmcd
#
# Track frame offsets: 
#        150
#        40111
#        67952
#        114183
#        152045
#        183657
#
# Disc length: 2955 seconds
#
# Revision: 2
# Processed by: cddbd v1.5.2PL0 Copyright (c) Steve Scherf et al.
# Submitted via: ExactAudioCopy v0.99pb5
#
DISCID=440b8906
DTITLE=Anthimos Apostolis and Friends - thEatro - Live
DYEAR=1999
DGENRE=Jazz
TTITLE0=Oh My Dear
TTITLE1=Six Caribe
TTITLE2=Bony
TTITLE3=Pontiac
TTITLE4=Foxy Lady - Third Stone From The Sun
TTITLE5=Living For The City
EXTD=YEAR: 1999
EXTT0=
EXTT1=
EXTT2=
EXTT3=
EXTT4=
EXTT5=
PLAYORDER=
